<?xml version="1.0" encoding="UTF-8"?>
<svg width="48" height="48" viewBox="0 0 48 48" fill="none" xmlns="http://www.w3.org/2000/svg">
    <rect width="48" height="48" rx="8" fill="#0D1117"/>
    <path d="M24 12C17.3726 12 12 17.3726 12 24C12 30.6274 17.3726 36 24 36C30.6274 36 36 30.6274 36 24C36 17.3726 30.6274 12 24 12ZM24 33C19.0294 33 15 28.9706 15 24C15 19.0294 19.0294 15 24 15C28.9706 15 33 19.0294 33 24C33 28.9706 28.9706 33 24 33Z" fill="#09D2EA"/>
    <path d="M24 18C21.7909 18 20 19.7909 20 22V26C20 28.2091 21.7909 30 24 30C26.2091 30 28 28.2091 28 26V22C28 19.7909 26.2091 18 24 18Z" fill="#09D2EA"/>
    <path d="M24 21C22.8954 21 22 21.8954 22 23V25C22 26.1046 22.8954 27 24 27C25.1046 27 26 26.1046 26 25V23C26 21.8954 25.1046 21 24 21Z" fill="#0D1117"/>
</svg>